<svg xmlns="http://www.w3.org/2000/svg" viewBox="0 0 256 256" role="img" aria-label="D20 silver dice">
  <defs>
    <radialGradient id="body" cx="38%" cy="18%" r="84%">
      <stop stop-color="#ffffff"/>
      <stop offset=".3" stop-color="#dce5ed"/>
      <stop offset=".66" stop-color="#7b8691"/>
      <stop offset="1" stop-color="#222c36"/>
    </radialGradient>
    <linearGradient id="center" x1="90" y1="84" x2="166" y2="210" gradientUnits="userSpaceOnUse">
      <stop stop-color="#b8c2cc"/>
      <stop offset=".55" stop-color="#616c77"/>
      <stop offset="1" stop-color="#2b3540"/>
    </linearGradient>
    <filter id="shadow" x="-20%" y="-18%" width="140%" height="145%">
      <feDropShadow dx="0" dy="18" stdDeviation="13" flood-color="#02070d" flood-opacity=".56"/>
      <feDropShadow dx="0" dy="0" stdDeviation="7" flood-color="#9bd5ff" flood-opacity=".22"/>
    </filter>
  </defs>
  <g filter="url(#shadow)" stroke="#eef6ff" stroke-width="2.4" stroke-linejoin="round">
    <path d="M128 18 202 46 238 113 222 190 162 236H94L34 190 18 113 54 46Z" fill="url(#body)"/>
    <path d="M128 18 94 86 162 86Z" fill="#f8fbff" opacity=".95"/>
    <path d="M54 46 94 86 128 18Z" fill="#dbe3eb" opacity=".86"/>
    <path d="M202 46 128 18 162 86Z" fill="#c1ccd6" opacity=".82"/>
    <path d="M18 113 54 46 94 86 70 146Z" fill="#a6b0bb" opacity=".82"/>
    <path d="M238 113 202 46 162 86 186 146Z" fill="#7d8894" opacity=".84"/>
    <path d="M94 86 128 116 162 86 186 146 128 205 70 146Z" fill="url(#center)" opacity=".96"/>
    <path d="M18 113 70 146 34 190Z" fill="#6b7580" opacity=".86"/>
    <path d="M238 113 222 190 186 146Z" fill="#48535e" opacity=".9"/>
    <path d="M34 190 70 146 128 205 94 236Z" fill="#3f4954" opacity=".9"/>
    <path d="M222 190 162 236 128 205 186 146Z" fill="#2c3641" opacity=".92"/>
    <path d="M94 236 128 205 162 236Z" fill="#202a34" opacity=".94"/>
    <text x="108" y="73" fill="#26303a" font-family="Arial, Helvetica, sans-serif" font-size="36" font-weight="800">2</text>
    <text x="58" y="154" fill="#ffffff" font-family="Arial, Helvetica, sans-serif" font-size="35" font-weight="800">1</text>
    <text x="112" y="164" fill="#ffffff" font-family="Arial, Helvetica, sans-serif" font-size="52" font-weight="800">3</text>
    <text x="181" y="154" fill="#ffffff" font-family="Arial, Helvetica, sans-serif" font-size="35" font-weight="800">4</text>
  </g>
</svg>
